# ProBuilder 5.0.3
# https://unity3d.com/unity/features/worldbuilding/probuilder
# 14/10/2021 12:50:55

mtllib ./Plane.mtl
o Plane

g Plane
v -0.2857143 0 1.52381
v -0.2857143 0 1.619048
v -0.3809524 0 1.52381
v -0.3809524 0 1.619048
v -0.3809524 0 0.6666666
v -0.3809524 0 0.7619048
v -0.4761904 0 0.6666666
v -0.4761904 0 0.7619048
v -0.3809524 0 0.8571429
v -0.4761904 0 0.8571429
v -0.3809524 0 0.952381
v -0.4761904 0 0.952381
v -0.3809524 0 1.047619
v -0.4761904 0 1.047619
v -0.3809524 0 1.142857
v -0.4761904 0 1.142857
v -0.3809524 0 1.238095
v -0.4761904 0 1.238095
v -0.3809524 0 1.333333
v -0.4761904 0 1.333333
v -0.3809524 0 1.428571
v -0.4761904 0 1.428571
v -0.4761904 0 1.52381
v -0.4761904 0 0.4761904
v -0.4761904 0 0.5714285
v -0.5714285 0 0.4761904
v -0.5714285 0 0.5714285
v -0.5714285 0 0.6666666
v -0.5714285 0 0.7619048
v -0.5714285 0 0.8571429
v -0.5714285 0 0.952381
v -0.5714285 0 1.047619
v -0.5714285 0 1.142857
v -0.5714285 0 1.238095
v -0.5714285 0 1.333333
v -0.5714285 0 1.428571
v -0.5714285 0 1.52381
v -0.4761904 0 1.619048
v -0.5714285 0 1.619048
v -0.4761904 0 1.714286
v -0.5714285 0 1.714286
v -0.609011 4.217586E-07 0.4272415
v -0.6666666 0 0.5714285
v -0.6666666 0 0.6666666
v -0.6666666 0 0.7619048
v -0.6666666 0 0.8571429
v -0.6666666 0 0.952381
v -0.6666666 0 1.047619
v -0.6666666 0 1.142857
v -0.6666666 0 1.238095
v -0.6666666 0 1.333333
v -0.6666666 0 1.428571
v -0.6666666 0 1.52381
v -0.6666666 0 1.619048
v -0.6666666 0 1.714286
v -0.6666666 0 0.3809524
v -0.7619048 0 0.3809524
v -0.761905 8.552469E-07 0.5702159
v -0.7619048 0 0.6666666
v -0.7619048 0 0.7619048
v -0.7619048 0 0.8571429
v -0.7619048 0 0.952381
v -0.7619048 0 1.047619
v -0.7619048 0 1.142857
v -0.7619048 0 1.238095
v -0.7619048 0 1.333333
v -0.7619048 0 1.428571
v -0.7619048 0 1.52381
v -0.7619048 0 1.619048
v -0.7619048 0 1.714286
v -0.7619048 0 0.2857143
v -0.8571429 0 0.2857143
v -0.8571429 0 0.3809524
v -0.8571429 8.552469E-07 0.571891
v -0.8571429 0 0.5714285
v -0.8571429 0 0.6666666
v -0.8571429 0 0.7619048
v -0.8571429 0 0.8571429
v -0.8571429 0 0.952381
v -0.8571429 0 1.047619
v -0.8571429 0 1.142857
v -0.8571429 0 1.238095
v -0.8571429 0 1.333333
v -0.8571429 0 1.428571
v -0.8571429 0 1.52381
v -0.8571429 0 1.619048
v -0.8571429 0 1.714286
v -0.952381 0 0.2857143
v -0.952381 0 0.3809524
v -0.9523813 2.5892E-06 0.5709859
v -0.952381 0 0.5714285
v -0.952381 0 0.6666666
v -0.952381 0 0.7619048
v -0.952381 0 0.8571429
v -0.952381 0 0.952381
v -0.952381 0 1.047619
v -0.952381 0 1.142857
v -0.952381 0 1.238095
v -0.952381 0 1.333333
v -0.952381 0 1.428571
v -0.952381 0 1.52381
v -0.952381 0 1.619048
v -0.952381 0 1.714286
v -1.047619 0 0.2857143
v -1.047619 0 0.3809524
v -1.047619 0 0.4761904
v -1.047619 0 0.5714285
v -1.047619 0 0.6666666
v -1.047619 0 0.7619048
v -1.047619 0 0.8571429
v -1.047619 0 0.952381
v -1.047619 0 1.047619
v -1.047619 0 1.142857
v -1.047619 0 1.238095
v -1.047619 0 1.333333
v -1.047619 0 1.428571
v -1.047619 0 1.52381
v -1.047619 0 1.619048
v -1.047619 0 1.714286
v -1.142857 0 0.2857143
v -1.142857 0 0.3809524
v -1.142857 0 0.4761904
v -1.142857 0 0.5714285
v -1.142857 0 0.6666666
v -1.142857 0 0.7619048
v -1.142857 0 0.8571429
v -1.142857 0 0.952381
v -1.142857 0 1.047619
v -1.142857 0 1.142857
v -1.142857 0 1.238095
v -1.142857 0 1.333333
v -1.142857 0 1.428571
v -1.142857 0 1.52381
v -1.142857 0 1.619048
v -1.142857 0 1.714286
v -1.238095 0 0.2857143
v -1.238095 0 0.3809524
v -1.238095 0 0.4761904
v -1.238095 0 0.5714285
v -1.238095 0 0.6666666
v -1.238095 0 0.7619048
v -1.238095 0 0.8571429
v -1.238095 0 0.952381
v -1.238095 0 1.047619
v -1.238095 0 1.142857
v -1.238095 0 1.238095
v -1.238095 0 1.333333
v -1.238095 0 1.428571
v -1.238095 0 1.52381
v -1.238095 0 1.619048
v -1.238095 0 1.714286
v -1.333333 0 0.2857143
v -1.333333 0 0.3809524
v -1.333333 0 0.4761904
v -1.333333 0 0.5714285
v -1.333333 0 0.6666666
v -1.333333 0 0.7619048
v -1.333333 0 0.8571429
v -1.333333 0 0.952381
v -1.333333 0 1.047619
v -1.333333 0 1.142857
v -1.333333 0 1.238095
v -1.333333 0 1.333333
v -1.333333 0 1.428571
v -1.333333 0 1.52381
v -1.333333 0 1.619048
v -1.333333 0 1.714286
v -1.428571 0 0.2857143
v -1.428571 0 0.3809524
v -1.428571 0 0.4761904
v -1.428571 0 0.5714285
v -1.428571 0 0.6666666
v -1.428571 0 0.7619048
v -1.428571 0 0.8571429
v -1.428571 0 0.952381
v -1.428571 0 1.047619
v -1.428571 0 1.142857
v -1.428571 0 1.238095
v -1.428571 0 1.333333
v -1.428571 0 1.428571
v -1.428571 0 1.52381
v -1.428571 0 1.619048
v -1.52381 0 0.3809524
v -1.52381 0 0.4761904
v -1.52381 0 0.5714285
v -1.52381 0 0.6666666
v -1.52381 0 0.7619048
v -1.52381 0 0.8571429
v -1.52381 0 0.952381
v -1.52381 0 1.047619
v -1.52381 0 1.142857
v -1.52381 0 1.238095
v -1.52381 0 1.333333
v -1.52381 0 1.428571
v -1.52381 0 1.52381
v -1.52381 0 1.619048
v -1.619048 0 0.4761904
v -1.619048 0 0.5714285
v -1.619048 0 0.6666666
v -1.619048 0 0.7619048
v -1.619048 0 0.8571429
v -1.619048 0 0.952381
v -1.619048 0 1.047619
v -1.619048 0 1.142857
v -1.619048 0 1.238095
v -1.619048 0 1.333333
v -1.619048 0 1.428571
v -1.714286 0 0.7619048
v -1.714286 0 0.8571429
v -1.714286 0 0.952381
v -1.714286 0 1.047619
v -1.714286 0 1.142857
v -1.714286 0 1.238095
v -1.714286 0 1.333333

vt 0.2857143 1.52381
vt 0.2857143 1.619048
vt 0.3809524 1.52381
vt 0.3809524 1.619048
vt 0.3809524 0.6666666
vt 0.3809524 0.7619048
vt 0.4761904 0.6666666
vt 0.4761904 0.7619048
vt 0.3809524 0.8571429
vt 0.4761904 0.8571429
vt 0.3809524 0.952381
vt 0.4761904 0.952381
vt 0.3809524 1.047619
vt 0.4761904 1.047619
vt 0.3809524 1.142857
vt 0.4761904 1.142857
vt 0.3809524 1.238095
vt 0.4761904 1.238095
vt 0.3809524 1.333333
vt 0.4761904 1.333333
vt 0.3809524 1.428571
vt 0.4761904 1.428571
vt 0.4761904 1.52381
vt 0.4761904 0.4761904
vt 0.4761904 0.5714285
vt 0.5714285 0.4761904
vt 0.5714285 0.5714285
vt 0.5714285 0.6666666
vt 0.5714285 0.7619048
vt 0.5714285 0.8571429
vt 0.5714285 0.952381
vt 0.5714285 1.047619
vt 0.5714285 1.142857
vt 0.5714285 1.238095
vt 0.5714285 1.333333
vt 0.5714285 1.428571
vt 0.5714285 1.52381
vt 0.4761904 1.619048
vt 0.5714285 1.619048
vt 0.4761904 1.714286
vt 0.5714285 1.714286
vt 0.609011 0.4272415
vt 0.6666666 0.5714285
vt 0.6666666 0.6666666
vt 0.6666666 0.7619048
vt 0.6666666 0.8571429
vt 0.6666666 0.952381
vt 0.6666666 1.047619
vt 0.6666666 1.142857
vt 0.6666666 1.238095
vt 0.6666666 1.333333
vt 0.6666666 1.428571
vt 0.6666666 1.52381
vt 0.6666666 1.619048
vt 0.6666666 1.714286
vt 0.6666666 0.3809524
vt 0.7619048 0.3809524
vt 0.761905 0.5702159
vt 0.7619048 0.6666666
vt 0.7619048 0.7619048
vt 0.7619048 0.8571429
vt 0.7619048 0.952381
vt 0.7619048 1.047619
vt 0.7619048 1.142857
vt 0.7619048 1.238095
vt 0.7619048 1.333333
vt 0.7619048 1.428571
vt 0.7619048 1.52381
vt 0.7619048 1.619048
vt 0.7619048 1.714286
vt 0.7619048 0.2857143
vt 0.8571429 0.2857143
vt 0.8571429 0.3809524
vt 0.8571429 0.571891
vt 0.8571429 0.5714285
vt 0.8571429 0.6666666
vt 0.8571429 0.7619048
vt 0.8571429 0.8571429
vt 0.8571429 0.952381
vt 0.8571429 1.047619
vt 0.8571429 1.142857
vt 0.8571429 1.238095
vt 0.8571429 1.333333
vt 0.8571429 1.428571
vt 0.8571429 1.52381
vt 0.8571429 1.619048
vt 0.8571429 1.714286
vt 0.952381 0.2857143
vt 0.952381 0.3809524
vt 0.9523813 0.5709859
vt 0.952381 0.5714285
vt 0.952381 0.6666666
vt 0.952381 0.7619048
vt 0.952381 0.8571429
vt 0.952381 0.952381
vt 0.952381 1.047619
vt 0.952381 1.142857
vt 0.952381 1.238095
vt 0.952381 1.333333
vt 0.952381 1.428571
vt 0.952381 1.52381
vt 0.952381 1.619048
vt 0.952381 1.714286
vt 1.047619 0.2857143
vt 1.047619 0.3809524
vt 1.047619 0.4761904
vt 1.047601 0.5713829
vt 1.047619 0.6666666
vt 1.047619 0.7619048
vt 1.047619 0.8571429
vt 1.047619 0.952381
vt 1.047619 1.047619
vt 1.047619 1.142857
vt 1.047619 1.238095
vt 1.047619 1.333333
vt 1.047619 1.428571
vt 1.047619 1.52381
vt 1.047619 1.619048
vt 1.047619 1.714286
vt 1.142857 0.2857143
vt 1.142857 0.3809524
vt 1.142857 0.4761904
vt 1.142857 0.5714285
vt 1.142857 0.6666666
vt 1.142857 0.7619048
vt 1.142857 0.8571429
vt 1.142857 0.952381
vt 1.142857 1.047619
vt 1.142857 1.142857
vt 1.142857 1.238095
vt 1.142857 1.333333
vt 1.142857 1.428571
vt 1.142857 1.52381
vt 1.142857 1.619048
vt 1.142857 1.714286
vt 1.238095 0.2857143
vt 1.238095 0.3809524
vt 1.238095 0.4761904
vt 1.238095 0.5714285
vt 1.238095 0.6666666
vt 1.238095 0.7619048
vt 1.238095 0.8571429
vt 1.238095 0.952381
vt 1.238095 1.047619
vt 1.238095 1.142857
vt 1.238095 1.238095
vt 1.238095 1.333333
vt 1.238095 1.428571
vt 1.238095 1.52381
vt 1.238095 1.619048
vt 1.238095 1.714286
vt 1.333333 0.2857143
vt 1.333333 0.3809524
vt 1.333333 0.4761904
vt 1.333333 0.5714285
vt 1.333333 0.6666666
vt 1.333333 0.7619048
vt 1.333333 0.8571429
vt 1.333333 0.952381
vt 1.333333 1.047619
vt 1.333333 1.142857
vt 1.333333 1.238095
vt 1.333333 1.333333
vt 1.333333 1.428571
vt 1.333333 1.52381
vt 1.333333 1.619048
vt 1.333333 1.714286
vt 1.428571 0.2857143
vt 1.428571 0.3809524
vt 1.428571 0.4761904
vt 1.428571 0.5714285
vt 1.428571 0.6666666
vt 1.428571 0.7619048
vt 1.428571 0.8571429
vt 1.428571 0.952381
vt 1.428571 1.047619
vt 1.428571 1.142857
vt 1.428571 1.238095
vt 1.428571 1.333333
vt 1.428571 1.428571
vt 1.428571 1.52381
vt 1.428571 1.619048
vt 1.52381 0.3809524
vt 1.52381 0.4761904
vt 1.52381 0.5714285
vt 1.52381 0.6666666
vt 1.52381 0.7619048
vt 1.52381 0.8571429
vt 1.52381 0.952381
vt 1.52381 1.047619
vt 1.52381 1.142857
vt 1.52381 1.238095
vt 1.52381 1.333333
vt 1.52381 1.428571
vt 1.52381 1.52381
vt 1.52381 1.619048
vt 1.619048 0.4761904
vt 1.619048 0.5714285
vt 1.619048 0.6666666
vt 1.619048 0.7619048
vt 1.619048 0.8571429
vt 1.619048 0.952381
vt 1.619048 1.047619
vt 1.619048 1.142857
vt 1.619048 1.238095
vt 1.619048 1.333333
vt 1.619048 1.428571
vt 1.714286 0.7619048
vt 1.714286 0.8571429
vt 1.714286 0.952381
vt 1.714286 1.047619
vt 1.714286 1.142857
vt 1.714286 1.238095
vt 1.714286 1.333333

vn 0 1 0
vn 4.448762E-06 0.5 3.241453E-06
vn 0 0 0
vn -0.005854185 0.9999657 0.005854189
vn -0.002927093 0.9999828 0.002927095

usemtl ProBuilderDefault
f 3/3/1 4/4/1 2/2/1 1/1/1
f 7/7/1 8/8/1 6/6/1 5/5/1
f 8/8/1 10/10/1 9/9/1 6/6/1
f 10/10/1 12/12/1 11/11/1 9/9/1
f 12/12/1 14/14/1 13/13/1 11/11/1
f 14/14/1 16/16/1 15/15/1 13/13/1
f 16/16/1 18/18/1 17/17/1 15/15/1
f 18/18/1 20/20/1 19/19/1 17/17/1
f 20/20/1 22/22/1 21/21/1 19/19/1
f 22/22/1 23/23/1 3/3/1 21/21/1
f 26/26/1 27/27/1 25/25/1 24/24/1
f 27/27/1 28/28/1 7/7/1 25/25/1
f 28/28/1 29/29/1 8/8/1 7/7/1
f 29/29/1 30/30/1 10/10/1 8/8/1
f 30/30/1 31/31/1 12/12/1 10/10/1
f 31/31/1 32/32/1 14/14/1 12/12/1
f 32/32/1 33/33/1 16/16/1 14/14/1
f 33/33/1 34/34/1 18/18/1 16/16/1
f 34/34/1 35/35/1 20/20/1 18/18/1
f 35/35/1 36/36/1 22/22/1 20/20/1
f 36/36/1 37/37/1 23/23/1 22/22/1
f 37/37/1 39/39/1 38/38/1 23/23/1
f 39/39/1 41/41/1 40/40/1 38/38/1
f 42/42/1 43/43/1 27/27/1 26/26/1
f 43/43/1 44/44/1 28/28/1 27/27/1
f 44/44/1 45/45/1 29/29/1 28/28/1
f 45/45/1 46/46/1 30/30/1 29/29/1
f 46/46/1 47/47/1 31/31/1 30/30/1
f 47/47/1 48/48/1 32/32/1 31/31/1
f 48/48/1 49/49/1 33/33/1 32/32/1
f 49/49/1 50/50/1 34/34/1 33/33/1
f 50/50/1 51/51/1 35/35/1 34/34/1
f 51/51/1 52/52/1 36/36/1 35/35/1
f 52/52/1 53/53/1 37/37/1 36/36/1
f 53/53/1 54/54/1 39/39/1 37/37/1
f 54/54/1 55/55/1 41/41/1 39/39/1
f 57/57/1 58/58/1 42/42/1 56/56/1
f 58/58/2 58/58/3 43/43/2 42/42/1
f 58/58/1 59/59/1 44/44/1 43/43/1
f 59/59/1 60/60/1 45/45/1 44/44/1
f 60/60/1 61/61/1 46/46/1 45/45/1
f 61/61/1 62/62/1 47/47/1 46/46/1
f 62/62/1 63/63/1 48/48/1 47/47/1
f 63/63/1 64/64/1 49/49/1 48/48/1
f 64/64/1 65/65/1 50/50/1 49/49/1
f 65/65/1 66/66/1 51/51/1 50/50/1
f 66/66/1 67/67/1 52/52/1 51/51/1
f 67/67/1 68/68/1 53/53/1 52/52/1
f 68/68/1 69/69/1 54/54/1 53/53/1
f 69/69/1 70/70/1 55/55/1 54/54/1
f 72/72/1 73/73/1 57/57/1 71/71/1
f 73/73/1 74/74/1 58/58/1 57/57/1
f 75/75/1 76/76/1 59/59/1 58/58/1
f 76/76/1 77/77/1 60/60/1 59/59/1
f 77/77/1 78/78/1 61/61/1 60/60/1
f 78/78/1 79/79/1 62/62/1 61/61/1
f 79/79/1 80/80/1 63/63/1 62/62/1
f 80/80/1 81/81/1 64/64/1 63/63/1
f 81/81/1 82/82/1 65/65/1 64/64/1
f 82/82/1 83/83/1 66/66/1 65/65/1
f 83/83/1 84/84/1 67/67/1 66/66/1
f 84/84/1 85/85/1 68/68/1 67/67/1
f 85/85/1 86/86/1 69/69/1 68/68/1
f 86/86/1 87/87/1 70/70/1 69/69/1
f 88/88/1 89/89/1 73/73/1 72/72/1
f 89/89/1 90/90/1 74/74/1 73/73/1
f 91/91/1 92/92/1 76/76/1 75/75/1
f 92/92/1 93/93/1 77/77/1 76/76/1
f 93/93/1 94/94/1 78/78/1 77/77/1
f 94/94/1 95/95/1 79/79/1 78/78/1
f 95/95/1 96/96/1 80/80/1 79/79/1
f 96/96/1 97/97/1 81/81/1 80/80/1
f 97/97/1 98/98/1 82/82/1 81/81/1
f 98/98/1 99/99/1 83/83/1 82/82/1
f 99/99/1 100/100/1 84/84/1 83/83/1
f 100/100/1 101/101/1 85/85/1 84/84/1
f 101/101/1 102/102/1 86/86/1 85/85/1
f 102/102/1 103/103/1 87/87/1 86/86/1
f 104/104/1 105/105/1 89/89/1 88/88/1
f 105/105/1 106/106/1 90/90/1 89/89/1
f 106/106/5 107/107/1 91/91/5 90/90/4
f 107/107/1 108/108/1 92/92/1 91/91/1
f 108/108/1 109/109/1 93/93/1 92/92/1
f 109/109/1 110/110/1 94/94/1 93/93/1
f 110/110/1 111/111/1 95/95/1 94/94/1
f 111/111/1 112/112/1 96/96/1 95/95/1
f 112/112/1 113/113/1 97/97/1 96/96/1
f 113/113/1 114/114/1 98/98/1 97/97/1
f 114/114/1 115/115/1 99/99/1 98/98/1
f 115/115/1 116/116/1 100/100/1 99/99/1
f 116/116/1 117/117/1 101/101/1 100/100/1
f 117/117/1 118/118/1 102/102/1 101/101/1
f 118/118/1 119/119/1 103/103/1 102/102/1
f 120/120/1 121/121/1 105/105/1 104/104/1
f 121/121/1 122/122/1 106/106/1 105/105/1
f 122/122/1 123/123/1 107/107/1 106/106/1
f 123/123/1 124/124/1 108/108/1 107/107/1
f 124/124/1 125/125/1 109/109/1 108/108/1
f 125/125/1 126/126/1 110/110/1 109/109/1
f 126/126/1 127/127/1 111/111/1 110/110/1
f 127/127/1 128/128/1 112/112/1 111/111/1
f 128/128/1 129/129/1 113/113/1 112/112/1
f 129/129/1 130/130/1 114/114/1 113/113/1
f 130/130/1 131/131/1 115/115/1 114/114/1
f 131/131/1 132/132/1 116/116/1 115/115/1
f 132/132/1 133/133/1 117/117/1 116/116/1
f 133/133/1 134/134/1 118/118/1 117/117/1
f 134/134/1 135/135/1 119/119/1 118/118/1
f 136/136/1 137/137/1 121/121/1 120/120/1
f 137/137/1 138/138/1 122/122/1 121/121/1
f 138/138/1 139/139/1 123/123/1 122/122/1
f 139/139/1 140/140/1 124/124/1 123/123/1
f 140/140/1 141/141/1 125/125/1 124/124/1
f 141/141/1 142/142/1 126/126/1 125/125/1
f 142/142/1 143/143/1 127/127/1 126/126/1
f 143/143/1 144/144/1 128/128/1 127/127/1
f 144/144/1 145/145/1 129/129/1 128/128/1
f 145/145/1 146/146/1 130/130/1 129/129/1
f 146/146/1 147/147/1 131/131/1 130/130/1
f 147/147/1 148/148/1 132/132/1 131/131/1
f 148/148/1 149/149/1 133/133/1 132/132/1
f 149/149/1 150/150/1 134/134/1 133/133/1
f 150/150/1 151/151/1 135/135/1 134/134/1
f 152/152/1 153/153/1 137/137/1 136/136/1
f 153/153/1 154/154/1 138/138/1 137/137/1
f 154/154/1 155/155/1 139/139/1 138/138/1
f 155/155/1 156/156/1 140/140/1 139/139/1
f 156/156/1 157/157/1 141/141/1 140/140/1
f 157/157/1 158/158/1 142/142/1 141/141/1
f 158/158/1 159/159/1 143/143/1 142/142/1
f 159/159/1 160/160/1 144/144/1 143/143/1
f 160/160/1 161/161/1 145/145/1 144/144/1
f 161/161/1 162/162/1 146/146/1 145/145/1
f 162/162/1 163/163/1 147/147/1 146/146/1
f 163/163/1 164/164/1 148/148/1 147/147/1
f 164/164/1 165/165/1 149/149/1 148/148/1
f 165/165/1 166/166/1 150/150/1 149/149/1
f 166/166/1 167/167/1 151/151/1 150/150/1
f 168/168/1 169/169/1 153/153/1 152/152/1
f 169/169/1 170/170/1 154/154/1 153/153/1
f 170/170/1 171/171/1 155/155/1 154/154/1
f 171/171/1 172/172/1 156/156/1 155/155/1
f 172/172/1 173/173/1 157/157/1 156/156/1
f 173/173/1 174/174/1 158/158/1 157/157/1
f 174/174/1 175/175/1 159/159/1 158/158/1
f 175/175/1 176/176/1 160/160/1 159/159/1
f 176/176/1 177/177/1 161/161/1 160/160/1
f 177/177/1 178/178/1 162/162/1 161/161/1
f 178/178/1 179/179/1 163/163/1 162/162/1
f 179/179/1 180/180/1 164/164/1 163/163/1
f 180/180/1 181/181/1 165/165/1 164/164/1
f 181/181/1 182/182/1 166/166/1 165/165/1
f 183/183/1 184/184/1 170/170/1 169/169/1
f 184/184/1 185/185/1 171/171/1 170/170/1
f 185/185/1 186/186/1 172/172/1 171/171/1
f 186/186/1 187/187/1 173/173/1 172/172/1
f 187/187/1 188/188/1 174/174/1 173/173/1
f 188/188/1 189/189/1 175/175/1 174/174/1
f 189/189/1 190/190/1 176/176/1 175/175/1
f 190/190/1 191/191/1 177/177/1 176/176/1
f 191/191/1 192/192/1 178/178/1 177/177/1
f 192/192/1 193/193/1 179/179/1 178/178/1
f 193/193/1 194/194/1 180/180/1 179/179/1
f 194/194/1 195/195/1 181/181/1 180/180/1
f 195/195/1 196/196/1 182/182/1 181/181/1
f 197/197/1 198/198/1 185/185/1 184/184/1
f 198/198/1 199/199/1 186/186/1 185/185/1
f 199/199/1 200/200/1 187/187/1 186/186/1
f 200/200/1 201/201/1 188/188/1 187/187/1
f 201/201/1 202/202/1 189/189/1 188/188/1
f 202/202/1 203/203/1 190/190/1 189/189/1
f 203/203/1 204/204/1 191/191/1 190/190/1
f 204/204/1 205/205/1 192/192/1 191/191/1
f 205/205/1 206/206/1 193/193/1 192/192/1
f 206/206/1 207/207/1 194/194/1 193/193/1
f 208/208/1 209/209/1 201/201/1 200/200/1
f 209/209/1 210/210/1 202/202/1 201/201/1
f 210/210/1 211/211/1 203/203/1 202/202/1
f 211/211/1 212/212/1 204/204/1 203/203/1
f 212/212/1 213/213/1 205/205/1 204/204/1
f 213/213/1 214/214/1 206/206/1 205/205/1

