# ProBuilder 5.0.3
# https://unity3d.com/unity/features/worldbuilding/probuilder
# 26/10/2021 11:31:38

mtllib ./Stairs_(6).mtl
o Stairs (6)

g Stairs (6)
v 0.5159511 -3.5 2.50001
v -1.499968 -3.5 2.50001
v 0.5159511 -3.033333 2.50001
v -1.499968 -3.033333 2.50001
v -1.4926 -3.033333 2.129939
v 0.5205559 -3.033333 2.268716
v 0.5205559 -2.566667 2.268716
v -1.4926 -2.566667 2.129939
v -1.470519 -2.566667 1.760883
v 0.5343567 -2.566667 2.038055
v 0.5343567 -2.1 2.038055
v -1.470519 -2.1 1.760883
v -1.433783 -2.1 1.393852
v 0.5573165 -2.1 1.808661
v 0.5573165 -1.633333 1.808661
v -1.433783 -1.633333 1.393852
v -1.382494 -1.633333 1.029853
v 0.5893722 -1.633333 1.581162
v 0.5893722 -1.166667 1.581162
v -1.382494 -1.166667 1.029853
v -1.316792 -1.166667 0.6698835
v 0.6304358 -1.166667 1.356181
v 0.6304358 -0.7 1.356181
v -1.316792 -0.7 0.6698835
v -1.236858 -0.7 0.3149303
v 0.6803944 -0.7 1.134335
v 0.6803944 -0.2333333 1.134335
v -1.236858 -0.2333333 0.3149303
v -1.14291 -0.2333333 -0.03403359
v 0.7391119 -0.2333333 0.9162329
v 0.7391119 0.2333333 0.9162329
v -1.14291 0.2333333 -0.03403359
v -1.035207 0.2333333 -0.3760519
v 0.8064268 0.2333333 0.7024714
v 0.8064268 0.6999998 0.7024714
v -1.035207 0.6999998 -0.3760519
v -0.9140423 0.6999998 -0.7101873
v 0.8821542 0.6999998 0.493637
v 0.8821542 1.166667 0.493637
v -0.9140423 1.166667 -0.7101873
v -0.7797491 1.166667 -1.035523
v 0.9660877 1.166667 0.2903018
v 0.9660877 1.633333 0.2903018
v -0.7797491 1.633333 -1.035523
v -0.6326954 1.633333 -1.351169
v 1.057996 1.633333 0.09302314
v 1.057996 2.1 0.09302314
v -0.6326954 2.1 -1.351169
v -0.4732844 2.1 -1.656259
v 1.157628 2.1 -0.09765784
v 1.157628 2.566667 -0.09765784
v -0.4732844 2.566667 -1.656259
v -0.3019524 2.566667 -1.949957
v 1.264711 2.566667 -0.2812189
v 1.264711 3.033333 -0.2812189
v -0.3019524 3.033333 -1.949957
v -0.1191698 3.033333 -2.231457
v 1.37895 3.033333 -0.457157
v 1.37895 3.5 -0.457157
v -0.1191698 3.5 -2.231457
v 0.07456288 3.5 -2.49999
v 1.500032 3.5 -0.6249895
v 0.5205559 -3.5 2.268716
v 0.5343567 -3.5 2.038055
v 0.5573165 -3.5 1.808661
v 0.5893722 -3.5 1.581162
v 0.6304358 -3.5 1.356181
v 0.6803944 -3.5 1.134335
v 0.7391119 -3.5 0.9162329
v 0.8064268 -3.5 0.7024714
v 0.8821542 -3.5 0.493637
v 0.9660877 -3.5 0.2903018
v 1.057996 -3.5 0.09302314
v 1.157628 -3.5 -0.09765784
v 1.264711 -3.5 -0.2812189
v 1.37895 -3.5 -0.457157
v 1.500032 -3.5 -0.6249895
v -1.4926 -3.5 2.129939
v -1.470519 -3.5 1.760883
v -1.433783 -3.5 1.393852
v -1.382494 -3.5 1.029853
v -1.316792 -3.5 0.6698835
v -1.236858 -3.5 0.3149303
v -1.14291 -3.5 -0.03403359
v -1.035207 -3.5 -0.3760519
v -0.9140423 -3.5 -0.7101873
v -0.7797491 -3.5 -1.035523
v -0.6326954 -3.5 -1.351169
v -0.4732844 -3.5 -1.656259
v -0.3019524 -3.5 -1.949957
v -0.1191698 -3.5 -2.231457
v 0.07456288 -3.5 -2.49999

vt 0.5159511 -3.5
vt -1.499968 -3.5
vt 0.5159511 -3.033333
vt -1.499968 -3.033333
vt -0.5204502 2.473622
vt 1.494778 2.526393
vt 1.4971 2.156255
vt -0.5189988 2.242286
vt 0.6753467 -3.033333
vt -1.342587 -3.033333
vt 0.6753467 -2.566667
vt -1.342587 -2.566667
vt -0.5373963 2.189499
vt 1.480442 2.209101
vt 1.487385 1.839449
vt -0.5330573 1.958467
vt 0.8084276 -2.566667
vt -1.215517 -2.566667
vt 0.8084276 -2.1
vt -1.215517 -2.1
vt -0.5679216 1.905954
vt 1.45598 1.892841
vt 1.467466 1.524155
vt -0.5607431 1.675525
vt 0.9144838 -2.1
vt -1.119366 -2.1
vt 0.9144838 -1.633333
vt -1.119366 -1.633333
vt -0.6118776 1.623637
vt 1.421474 1.578623
vt 1.437377 1.211372
vt -0.6019381 1.394105
vt 0.993351 -1.633333
vt -1.054135 -1.633333
vt 0.993351 -1.166667
vt -1.054135 -1.166667
vt -0.6690648 1.343204
vt 1.377019 1.267451
vt 1.397166 0.9020895
vt -0.6564733 1.114853
vt 1.045391 -1.166667
vt -1.01924 -1.166667
vt 1.045391 -0.7
vt -1.01924 -0.7
vt -0.7392364 1.065315
vt 1.322723 0.9603218
vt 1.346893 0.5972832
vt -0.7241299 0.8384157
vt 1.07144 -0.7
vt -1.013573 -0.7
vt 1.07144 -0.2333333
vt -1.013573 -0.2333333
vt -0.8220978 0.7906313
vt 1.258707 0.6582187
vt 1.286634 0.2979103
vt -0.8046433 0.5654386
vt 1.072745 -0.2333333
vt -1.035575 -0.2333333
vt 1.072745 0.2333333
vt -1.035575 0.2333333
vt -0.9173117 0.5198191
vt 1.185101 0.3621059
vt 1.216481 0.004905879
vt -0.8976995 0.296569
vt 1.050872 0.2333333
vt -1.083332 0.2333333
vt 1.050872 0.6999998
vt -1.083332 0.6999998
vt -1.024497 0.2535433
vt 1.102051 0.072928
vt 1.136539 -0.2808202
vt -1.002942 0.03245093
vt 1.007622 0.6999998
vt -1.154672 0.6999998
vt 1.007622 1.166667
vt -1.154672 1.166667
vt -1.143232 -0.00752756
vt 1.009712 -0.2083983
vt 1.046929 -0.5583885
vt -1.119971 -0.2262716
vt 0.9449489 1.166667
vt -1.247255 1.166667
vt 0.9449489 1.633333
vt -1.247255 1.633333
vt -1.27306 -0.2627293
vt 0.9082527 -0.4809839
vt 0.9477935 -0.8269514
vt -1.248347 -0.4789591
vt 0.864877 1.633333
vt -1.358663 1.633333
vt 0.864877 2.1
vt -1.358663 2.1
vt -1.413485 -0.5113966
vt 0.7978574 -0.7439746
vt 0.8392873 -1.085698
vt -1.387592 -0.724974
vt 0.7694383 2.1
vt -1.486468 2.1
vt 0.7694383 2.566667
vt -1.486468 2.566667
vt -1.563985 -0.7528679
vt 0.6787211 -0.9965528
vt 0.7215861 -1.333859
vt -1.537194 -0.9636844
vt 0.6606171 2.566667
vt -1.628295 2.566667
vt 0.6606171 3.033333
vt -1.628295 3.033333
vt -1.724004 -0.9864888
vt 0.5510545 -1.23794
vt 0.5948857 -1.570703
vt -1.696609 -1.194465
vt 0.540311 3.033333
vt -1.781866 3.033333
vt 0.540311 3.5
vt -1.781866 3.5
vt -1.892961 -1.211609
vt 0.4150839 -1.467404
vt 0.4594004 -1.795547
vt -1.865263 -1.416698
vt -2.489245 -3.5
vt -2.257905 -3.5
vt -2.489245 -3.033333
vt -2.257905 -3.033333
vt -2.233576 -3.5
vt -2.002503 -3.5
vt -2.233576 -3.033333
vt -2.002503 -2.566667
vt -2.233576 -2.566667
vt -1.974706 -3.5
vt -1.744165 -3.5
vt -1.974706 -2.566667
vt -1.744165 -2.1
vt -1.974706 -2.1
vt -1.713209 -3.5
vt -1.483463 -3.5
vt -1.713209 -2.1
vt -1.483463 -1.633333
vt -1.713209 -1.633333
vt -1.449641 -3.5
vt -1.220943 -3.5
vt -1.449641 -1.633333
vt -1.220943 -1.166667
vt -1.449641 -1.166667
vt -1.184546 -3.5
vt -0.9571444 -3.5
vt -1.184546 -1.166667
vt -0.9571444 -0.7
vt -1.184546 -0.7
vt -0.9184572 -3.5
vt -0.692589 -3.5
vt -0.9184572 -0.7
vt -0.692589 -0.2333333
vt -0.9184572 -0.2333333
vt -0.6519216 -3.5
vt -0.4278116 -3.5
vt -0.6519216 -0.2333333
vt -0.4278116 0.2333333
vt -0.6519216 0.2333333
vt -0.3854837 -3.5
vt -0.163343 -3.5
vt -0.3854837 0.2333333
vt -0.163343 0.6999998
vt -0.3854837 0.6999998
vt -0.1197009 -3.5
vt 0.1002764 -3.5
vt -0.1197009 0.6999998
vt 0.1002764 1.166667
vt -0.1197009 1.166667
vt 0.144834 -3.5
vt 0.3624713 -3.5
vt 0.144834 1.166667
vt 0.3624713 1.633333
vt 0.144834 1.633333
vt 0.407511 -3.5
vt 0.6226523 -3.5
vt 0.407511 1.633333
vt 0.6226523 2.1
vt 0.407511 2.1
vt 0.66767 -3.5
vt 0.880182 -3.5
vt 0.66767 2.1
vt 0.880182 2.566667
vt 0.66767 2.566667
vt 0.9246014 -3.5
vt 1.134374 -3.5
vt 0.9246014 2.566667
vt 1.134374 3.033333
vt 0.9246014 3.033333
vt 1.177538 -3.5
vt 1.384489 -3.5
vt 1.177538 3.033333
vt 1.384489 3.5
vt 1.177538 3.5
vt 2.529371 -3.5
vt 2.159226 -3.5
vt 2.529371 -3.033333
vt 2.159226 -3.033333
vt 2.215284 -3.5
vt 1.845567 -3.5
vt 2.215284 -3.033333
vt 1.845567 -2.566667
vt 2.215284 -2.566667
vt 1.898579 -3.5
vt 1.529714 -3.5
vt 1.898579 -2.566667
vt 1.529714 -2.1
vt 1.898579 -2.1
vt 1.580267 -3.5
vt 1.212673 -3.5
vt 1.580267 -2.1
vt 1.212673 -1.633333
vt 1.580267 -1.633333
vt 1.261348 -3.5
vt 0.8954324 -3.5
vt 1.261348 -1.633333
vt 0.8954324 -1.166667
vt 1.261348 -1.166667
vt 0.9428089 -3.5
vt 0.5789666 -3.5
vt 0.9428089 -1.166667
vt 0.5789666 -0.7
vt 0.9428089 -0.7
vt 0.6256406 -3.5
vt 0.2642516 -3.5
vt 0.6256406 -0.7
vt 0.2642516 -0.2333333
vt 0.6256406 -0.2333333
vt 0.310828 -3.5
vt -0.04774771 -3.5
vt 0.310828 -0.2333333
vt -0.04774771 0.2333333
vt 0.310828 0.2333333
vt -0.000625156 -3.5
vt -0.3560506 -3.5
vt -0.000625156 0.2333333
vt -0.3560506 0.6999998
vt -0.000625156 0.6999998
vt -0.3077022 -3.5
vt -0.6596656 -3.5
vt -0.3077022 0.6999998
vt -0.6596656 1.166667
vt -0.3077022 1.166667
vt -0.609367 -3.5
vt -0.9575868 -3.5
vt -0.609367 1.166667
vt -0.9575868 1.633333
vt -0.609367 1.633333
vt -0.9045483 -3.5
vt -1.248774 -3.5
vt -0.9045483 1.633333
vt -1.248774 2.1
vt -0.9045483 2.1
vt -1.192141 -3.5
vt -1.53216 -3.5
vt -1.192141 2.1
vt -1.53216 2.566667
vt -1.192141 2.566667
vt -1.471002 -3.5
vt -1.806639 -3.5
vt -1.471002 2.566667
vt -1.806639 3.033333
vt -1.471002 3.033333
vt -1.739935 -3.5
vt -2.071057 -3.5
vt -1.739935 3.033333
vt -2.071057 3.5
vt -1.739935 3.5
vt -0.4103011 -3.5
vt 1.945031 -3.5
vt -0.4103011 3.5
vt 1.945031 3.5

vn 0 0 1
vn 0 1 0
vn -0.06877162 0 0.9976324
vn -0.1369469 0 0.9905784
vn -0.2039529 0 0.9789807
vn -0.2692615 0 0.9630671
vn -0.3324069 0 0.9431361
vn -0.3929975 0 0.9195396
vn -0.4507222 0 0.8926643
vn -0.5053516 0 0.8629135
vn -0.5567348 0 0.8306903
vn -0.604791 0 0.7963842
vn -0.6495015 0 0.7603604
vn -0.690898 0 0.7229523
vn -0.7290528 0 0.6844575
vn -0.7640678 0 0.6451359
vn 0.9998019 0 0.01990467
vn 0.9992067 0 0.0398228
vn 0.9989201 0 0.04645984
vn 0.9968209 0 0.07967415
vn 0.9982148 0 0.05972512
vn 0.9928243 0 0.1195828
vn 0.9950284 0 0.09959132
vn 0.9871861 0 0.159573
vn 0.9902184 0 0.139526
vn 0.9798641 0 0.1996657
vn 0.9837481 0 0.1795544
vn 0.9708025 0 0.2398801
vn 0.975569 0 0.2196933
vn 0.9599339 0 0.2802266
vn 0.9656184 0 0.2599638
vn 0.947179 0 0.3207054
vn 0.9538242 0 0.3003653
vn 0.9324447 0 0.3613127
vn 0.9401001 0 0.3408987
vn 0.9156276 0 0.4020275
vn 0.9243461 0 0.3815551
vn 0.8966129 0 0.442815
vn 0.9064557 0 0.4223009
vn 0.8752748 0 0.4836259
vn 0.886306 0 0.4631
vn 0.8514804 0 0.5243864
vn 0.8637683 0 0.5038892
vn 0.8250898 0 0.5650016
vn 0.8387063 0 0.5445842
vn 0.8109764 0 0.5850788
vn -0.9998019 0 -0.01990405
vn -0.9992067 0 -0.03982281
vn -0.9989201 0 -0.04646006
vn -0.9968209 0 -0.07967436
vn -0.9982148 0 -0.05972577
vn -0.9928243 0 -0.1195827
vn -0.9950284 0 -0.0995911
vn -0.9871861 0 -0.1595729
vn -0.9902184 0 -0.1395259
vn -0.979864 0 -0.1996661
vn -0.9837481 0 -0.1795544
vn -0.9708024 0 -0.2398805
vn -0.9755688 0 -0.2196941
vn -0.9599339 0 -0.2802263
vn -0.9656184 0 -0.2599636
vn -0.947179 0 -0.3207055
vn -0.9538243 0 -0.3003649
vn -0.9324448 0 -0.3613127
vn -0.9400998 0 -0.3408993
vn -0.9156277 0 -0.4020273
vn -0.9243464 0 -0.3815544
vn -0.8966129 0 -0.4428152
vn -0.9064556 0 -0.4223012
vn -0.8752748 0 -0.4836259
vn -0.8863061 0 -0.4631
vn -0.8514804 0 -0.5243864
vn -0.8637683 0 -0.5038891
vn -0.8250896 0 -0.5650018
vn -0.8387062 0 -0.5445842
vn -0.8109761 0 -0.5850794
vn 0.7960662 0 -0.6052096

usemtl ProBuilderDefault
f 6/127/19 10/128/20 7/129/21
f 10/132/20 14/133/22 11/134/23
f 14/137/22 18/138/24 15/139/25
f 18/142/24 22/143/26 19/144/27
f 22/147/26 26/148/28 23/149/29
f 26/152/28 30/153/30 27/154/31
f 30/157/30 34/158/32 31/159/33
f 34/162/32 38/163/34 35/164/35
f 38/167/34 42/168/36 39/169/37
f 42/172/36 46/173/38 43/174/39
f 46/177/38 50/178/40 47/179/41
f 50/182/40 54/183/42 51/184/43
f 54/187/42 58/188/44 55/189/45
f 58/192/44 62/193/46 59/194/46
f 8/203/51 9/202/50 5/201/49
f 12/208/53 13/207/52 9/206/50
f 16/213/55 17/212/54 13/211/52
f 20/218/57 21/217/56 17/216/54
f 24/223/59 25/222/58 21/221/56
f 28/228/61 29/227/60 25/226/58
f 32/233/63 33/232/62 29/231/60
f 36/238/65 37/237/64 33/236/62
f 40/243/67 41/242/66 37/241/64
f 44/248/69 45/247/68 41/246/66
f 48/253/71 49/252/70 45/251/68
f 52/258/73 53/257/72 49/256/70
f 56/263/75 57/262/74 53/261/72
f 60/268/76 61/267/76 57/266/74
f 4/4/1 2/2/1 1/1/1
f 1/1/1 3/3/1 4/4/1
f 5/7/2 4/6/2 3/5/2
f 3/5/2 6/8/2 5/7/2
f 8/12/3 5/10/3 6/9/3
f 6/9/3 7/11/3 8/12/3
f 9/15/2 8/14/2 7/13/2
f 7/13/2 10/16/2 9/15/2
f 12/20/4 9/18/4 10/17/4
f 10/17/4 11/19/4 12/20/4
f 13/23/2 12/22/2 11/21/2
f 11/21/2 14/24/2 13/23/2
f 16/28/5 13/26/5 14/25/5
f 14/25/5 15/27/5 16/28/5
f 17/31/2 16/30/2 15/29/2
f 15/29/2 18/32/2 17/31/2
f 20/36/6 17/34/6 18/33/6
f 18/33/6 19/35/6 20/36/6
f 21/39/2 20/38/2 19/37/2
f 19/37/2 22/40/2 21/39/2
f 24/44/7 21/42/7 22/41/7
f 22/41/7 23/43/7 24/44/7
f 25/47/2 24/46/2 23/45/2
f 23/45/2 26/48/2 25/47/2
f 28/52/8 25/50/8 26/49/8
f 26/49/8 27/51/8 28/52/8
f 29/55/2 28/54/2 27/53/2
f 27/53/2 30/56/2 29/55/2
f 32/60/9 29/58/9 30/57/9
f 30/57/9 31/59/9 32/60/9
f 33/63/2 32/62/2 31/61/2
f 31/61/2 34/64/2 33/63/2
f 36/68/10 33/66/10 34/65/10
f 34/65/10 35/67/10 36/68/10
f 37/71/2 36/70/2 35/69/2
f 35/69/2 38/72/2 37/71/2
f 40/76/11 37/74/11 38/73/11
f 38/73/11 39/75/11 40/76/11
f 41/79/2 40/78/2 39/77/2
f 39/77/2 42/80/2 41/79/2
f 44/84/12 41/82/12 42/81/12
f 42/81/12 43/83/12 44/84/12
f 45/87/2 44/86/2 43/85/2
f 43/85/2 46/88/2 45/87/2
f 48/92/13 45/90/13 46/89/13
f 46/89/13 47/91/13 48/92/13
f 49/95/2 48/94/2 47/93/2
f 47/93/2 50/96/2 49/95/2
f 52/100/14 49/98/14 50/97/14
f 50/97/14 51/99/14 52/100/14
f 53/103/2 52/102/2 51/101/2
f 51/101/2 54/104/2 53/103/2
f 56/108/15 53/106/15 54/105/15
f 54/105/15 55/107/15 56/108/15
f 57/111/2 56/110/2 55/109/2
f 55/109/2 58/112/2 57/111/2
f 60/116/16 57/114/16 58/113/16
f 58/113/16 59/115/16 60/116/16
f 61/119/2 60/118/2 59/117/2
f 59/117/2 62/120/2 61/119/2
f 3/123/17 1/121/17 63/122/18
f 63/122/18 6/124/19 3/123/17
f 6/127/19 63/125/18 64/126/20
f 64/126/20 10/128/20 6/127/19
f 10/132/20 64/130/20 65/131/22
f 65/131/22 14/133/22 10/132/20
f 14/137/22 65/135/22 66/136/24
f 66/136/24 18/138/24 14/137/22
f 18/142/24 66/140/24 67/141/26
f 67/141/26 22/143/26 18/142/24
f 22/147/26 67/145/26 68/146/28
f 68/146/28 26/148/28 22/147/26
f 26/152/28 68/150/28 69/151/30
f 69/151/30 30/153/30 26/152/28
f 30/157/30 69/155/30 70/156/32
f 70/156/32 34/158/32 30/157/30
f 34/162/32 70/160/32 71/161/34
f 71/161/34 38/163/34 34/162/32
f 38/167/34 71/165/34 72/166/36
f 72/166/36 42/168/36 38/167/34
f 42/172/36 72/170/36 73/171/38
f 73/171/38 46/173/38 42/172/36
f 46/177/38 73/175/38 74/176/40
f 74/176/40 50/178/40 46/177/38
f 50/182/40 74/180/40 75/181/42
f 75/181/42 54/183/42 50/182/40
f 54/187/42 75/185/42 76/186/44
f 76/186/44 58/188/44 54/187/42
f 58/192/44 76/190/44 77/191/46
f 77/191/46 62/193/46 58/192/44
f 5/198/49 78/196/48 2/195/47
f 2/195/47 4/197/47 5/198/49
f 9/202/50 79/200/50 78/199/48
f 78/199/48 5/201/49 9/202/50
f 13/207/52 80/205/52 79/204/50
f 79/204/50 9/206/50 13/207/52
f 17/212/54 81/210/54 80/209/52
f 80/209/52 13/211/52 17/212/54
f 21/217/56 82/215/56 81/214/54
f 81/214/54 17/216/54 21/217/56
f 25/222/58 83/220/58 82/219/56
f 82/219/56 21/221/56 25/222/58
f 29/227/60 84/225/60 83/224/58
f 83/224/58 25/226/58 29/227/60
f 33/232/62 85/230/62 84/229/60
f 84/229/60 29/231/60 33/232/62
f 37/237/64 86/235/64 85/234/62
f 85/234/62 33/236/62 37/237/64
f 41/242/66 87/240/66 86/239/64
f 86/239/64 37/241/64 41/242/66
f 45/247/68 88/245/68 87/244/66
f 87/244/66 41/246/66 45/247/68
f 49/252/70 89/250/70 88/249/68
f 88/249/68 45/251/68 49/252/70
f 53/257/72 90/255/72 89/254/70
f 89/254/70 49/256/70 53/257/72
f 57/262/74 91/260/74 90/259/72
f 90/259/72 53/261/72 57/262/74
f 61/267/76 92/265/76 91/264/74
f 91/264/74 57/266/74 61/267/76
f 62/271/77 77/269/77 92/270/77
f 92/270/77 61/272/77 62/271/77

